<?xml version="1.0" standalone="no"?>
<!DOCTYPE svg PUBLIC "-//W3C//DTD SVG 20010904//EN"
 "http://www.w3.org/TR/2001/REC-SVG-20010904/DTD/svg10.dtd">
<svg version="1.0" xmlns="http://www.w3.org/2000/svg"
 width="160.000000pt" height="160.000000pt" viewBox="0 0 160.000000 160.000000"
 preserveAspectRatio="xMidYMid meet">
<metadata>
Created by potrace 1.14, written by Peter Selinger 2001-2017
</metadata>
<g transform="translate(0.000000,160.000000) scale(0.100000,-0.100000)"
fill="#000000" stroke="none">
<path d="M350 1458 c-19 -13 -41 -28 -48 -35 -7 -7 -22 -13 -33 -13 -29 0 -59
-18 -59 -36 0 -15 -30 -30 -76 -38 -65 -12 -129 -103 -120 -171 9 -67 11 -73
39 -102 15 -15 37 -44 50 -63 34 -52 60 -61 116 -43 84 27 88 27 166 -12 41
-20 77 -40 80 -45 11 -18 17 -100 8 -100 -5 0 -23 13 -39 30 -33 33 -46 37
-64 15 -10 -12 -9 -15 6 -15 18 -1 18 -1 0 -15 -19 -14 -14 -37 7 -30 7 3 19
1 27 -4 12 -9 12 -12 -3 -29 -23 -25 -21 -35 6 -26 l22 7 -20 -23 -20 -23 35
7 c19 4 40 8 45 10 6 1 16 6 24 11 10 6 16 4 19 -5 3 -7 17 -26 32 -42 l28
-29 -34 -65 c-19 -36 -34 -72 -34 -80 0 -17 17 -44 77 -128 24 -32 43 -66 43
-77 0 -27 -37 -49 -65 -39 -30 12 -79 -19 -93 -58 -12 -34 -5 -47 14 -31 9 7
19 7 33 -1 11 -5 34 -8 51 -5 31 5 60 -11 60 -34 0 -6 5 -11 10 -11 6 0 10 3
10 8 0 11 134 9 142 -3 5 -6 11 -6 19 2 6 6 22 8 38 4 59 -16 64 -7 93 149 15
88 14 107 -12 115 -11 3 -26 19 -34 35 l-14 30 31 -25 c18 -14 66 -59 107
-101 159 -163 315 -222 433 -165 57 27 78 46 109 96 49 79 25 225 -36 225 -19
0 -20 -1 -2 -35 15 -28 13 -84 -5 -116 -5 -10 -23 -26 -39 -34 -44 -23 -99 -5
-151 48 -53 55 -59 67 -118 245 -27 82 -63 177 -80 210 -27 54 -99 142 -116
142 -4 0 -19 8 -33 19 -15 10 -63 37 -107 60 -108 58 -141 91 -187 191 -69
150 -82 173 -130 222 -46 47 -47 48 -110 48 -48 0 -72 -6 -98 -22z m136 -692
c27 -20 14 -28 -18 -12 -15 8 -30 11 -34 8 -4 -4 -4 -1 0 6 9 16 28 15 52 -2z
m315 -472 c15 -13 16 -21 7 -38 -26 -50 -58 -48 -58 2 0 55 17 67 51 36z"/>
</g>
</svg>
